<?xml version="1.0" encoding="UTF-8"?>
<!DOCTYPE svg PUBLIC "-//W3C//DTD SVG 1.1//EN" "http://www.w3.org/Graphics/SVG/1.1/DTD/svg11.dtd">
<!-- Creator: CorelDRAW 2020 (64 Bit) -->
<svg xmlns="http://www.w3.org/2000/svg" xml:space="preserve" width="56.5714mm" height="40mm" version="1.1" style="shape-rendering:geometricPrecision; text-rendering:geometricPrecision; image-rendering:optimizeQuality; fill-rule:evenodd; clip-rule:evenodd"
viewBox="0 0 5657.14 4000"
 xmlns:xlink="http://www.w3.org/1999/xlink"
 xmlns:xodm="http://www.corel.com/coreldraw/odm/2003">
 <defs>
  <style type="text/css">
   <![CDATA[
    .fil3 {fill:#17F7FB}
    .fil7 {fill:#29E8FB}
    .fil8 {fill:#363938}
    .fil10 {fill:#464A48}
    .fil5 {fill:#5B5C5C}
    .fil4 {fill:#6E7270}
    .fil1 {fill:#7842E6}
    .fil6 {fill:#D5D9D8}
    .fil9 {fill:#DA0FF1}
    .fil2 {fill:#F205FC}
    .fil0 {fill:#FDFDFD}
   ]]>
  </style>
   <clipPath id="id0">
    <rect x="-183.35" y="239.87" width="5989.21" height="3368.93"/>
   </clipPath>
 </defs>
 <g id="Camada_x0020_1">
  <metadata id="CorelCorpID_0Corel-Layer"/>
  <g style="clip-path:url(#id0)">
   <image x="-183.35" y="239.87" width="5989.21" height="3368.93" xlink:href="JALAGAM_Images\JALAGAM_ImgID1.png"/>
  </g>
  <g id="_1259909061312">
   <path class="fil0" d="M271.41 1483.72c-3.69,18.38 -14.9,46.73 -12.58,63.83 16.94,5.21 52.35,-2.85 72.52,-3.77 12.02,4.65 46.17,4.13 53.06,-3.14l15.15 -5.38c35.79,-6.64 23.53,-33.73 40.98,-56.92 8.17,-24.39 35.66,-53.45 53.3,-71.58 8.6,-8.84 14.91,-9.76 23.86,-16.77 35.14,-27.54 65.1,-50.87 113.1,-55.21 12.46,7.04 10.59,2.44 20.98,-0.7 37.32,-11.25 142.09,1.37 159.95,-5.54 57.11,3.87 98.02,30.52 142.17,63.52 30.45,22.76 75.25,84.09 82.41,123.63 -3.22,9.72 1.53,20.86 4.19,33.26 1.87,8.74 6.56,22.05 9.16,31.39 17.85,64.23 2.08,108.75 2.26,153.69 0.54,131.1 13.91,276.42 -36.28,384.83 -31.21,67.41 -111.24,132.17 -183.12,150.66 -8.89,2.29 -23.35,8.12 -30.96,9.59l-73.09 2.9c-19.37,-2.46 -49.21,7.94 -110.13,-11.47 -14.54,-4.63 -50.38,-21.84 -62.4,-18.88 -4.47,-1.3 -33.41,-18.7 -39.22,-23.01 -7.78,-5.77 -25,-20.75 -31.51,-27.85 -15.64,-17.06 -46.26,-51.3 -50.91,-73.73l3.1 -0.02c-14.26,-6.29 -21.16,-31.15 -26.02,-46.65 -5.39,-17.15 -10.33,-36.08 -15.63,-52.42 -8.38,-5.43 -2.02,0.08 -5.92,-6.35 -6.37,-10.49 0.78,3.55 -2.11,-4.75 -7.87,-22.61 -6.22,-186.15 -4.39,-201.47 13.16,-8.82 12.32,-9.14 32.09,-9.13 32.41,0.01 98.44,4.32 121.7,-1.29l1.28 -112.36c-30.89,-11.15 -280.49,0.76 -288.01,-0.6 -25.2,2.87 -16.37,80.38 -16.25,101.25 0.49,84.18 -1.28,146.74 6.3,231.34 3.07,34.22 13.62,65.46 21.63,98.33 19.31,79.25 94.74,190.12 176.92,236.88 9.86,5.61 8.5,6.35 16.12,11.36 6.97,4.58 11.98,5.75 19.55,11.68 9.81,2.24 73.63,38.12 109.53,42.52 15.26,1.87 18.32,2.34 32.73,5.96l110.58 9.23c70.29,0.31 135.35,-8.75 196.08,-36.43 19.99,-9.11 34.92,-10.27 55.84,-22.59 36.79,-21.66 56.15,-39.79 88.72,-63.96 10.53,-7.81 62.59,-73.77 68.7,-86.42 8.12,-16.81 20.85,-30.77 27.82,-47.55 7.68,-18.51 13.09,-36.96 20.9,-56.17 12.22,-30.05 18.28,-116.4 28.57,-131.41 0,-54.97 3.96,-413.61 -3.34,-448.99 -4.9,-23.79 -11.58,-51.96 -18.82,-74.76 -5.14,-16.17 -19.38,-48.85 -27.53,-62.94 -5.87,-10.15 -29.15,-52.66 -37.66,-52.94 -12.22,-7.16 -23.31,-21.63 -31.18,-34.4 -11.44,-9.88 -21.24,-21.02 -33.56,-31.61 -6.17,-5.3 -9.57,-10.52 -16.09,-15 -7.05,-4.84 -11.91,-6.28 -18.65,-12.45l-80.05 -47.89c-15.47,-6.24 -32.75,-9.78 -48.58,-16.33 -15.4,-6.37 -40.72,-4.14 -49.5,-16.87 -0.03,-0.06 5.9,-2.72 -12.88,-5.62l-171.2 -0.62c-20.63,12.68 -43.64,0.17 -76.2,15 -11.79,5.37 -20.04,4.95 -32.58,10.34 -53.24,22.9 -87.99,27.62 -142.58,75.69 -8.2,7.22 -16.01,12.83 -24.34,19.54 -8.92,7.18 -12.4,14.94 -19.95,23.41 -23.71,26.6 -60.11,70.63 -73.11,101.66 -9.74,23.24 -11.6,40.79 -24.92,62.4z"/>
   <path class="fil1" d="M4108.91 1538.7l8.49 0.9c-1.42,56.01 -5.94,388.92 2.62,417.32 26.06,9.75 77.53,3.92 107.74,4.81 3.78,4.55 2.72,2.59 3.07,9.4 3.82,-4.65 7.6,-7.81 12.5,-12.22 11.57,-10.42 0.85,-5.05 15.31,-11.58l-8.24 -2.66 1.05 -211.41c14.09,6.32 15.6,15.42 16.13,30.01l5.8 -3.89c21.18,53.75 29.31,46.62 81.81,47.77l1.09 4.88c7.72,-5.18 17.22,-12.19 24.01,-19.49 -5.82,-3.83 7.17,-22.24 11,-28.85 6.9,-11.89 9.82,-25.33 20.56,-29.78 0.56,14.6 -5.56,16.51 -11.92,31.18 6.08,-3.14 6.62,-3.51 11.46,-7.49 6.07,34.12 1.93,120.69 1.69,160.54 -0.2,33.46 -1.16,44.06 35.71,43.38 27.24,-0.5 54.55,0.69 81.77,-0.5 3.73,5.44 2.81,2.15 1.59,10.1 8.66,-9.58 1.27,-3.66 13.17,-12.85 9.44,-7.3 5.33,-5.62 15.89,-11.4l-8.15 -2.26c0.47,-93.76 0.31,-186.5 0.31,-279.19 0,-187.05 28.63,-134.39 -129.41,-147.04 -33.42,10.33 -61.82,81.41 -81.83,112.73 7.62,17.6 -5.66,22.63 -16.42,14.18 -5.05,-3.96 -13.94,-22.87 -17.63,-29.42 -71.13,-126.26 -27.07,-90.65 -174.22,-97.34 -14.66,1.87 -17.57,10.97 -24.96,20.16z"/>
   <path class="fil0" d="M1956.54 1627.99l14.82 0.33c7.02,9.38 33.95,96.04 35.1,108.85l-96.7 0c0.36,-16.9 11.86,-44.78 16.72,-61.27 6.01,-20.4 6.38,-47.91 30.07,-47.91zm-66.31 342.33c15.13,-15.08 10.19,-30.48 10.16,-52.23 -0.03,-20.79 -0,-41.59 -0,-62.39l112.3 0c0,135.56 -12.9,115.12 102.94,115.41 66.37,0.17 49.39,3.58 49.9,-171.55 0.2,-67.07 -19.54,-113.75 -43.62,-174.74 -48.9,-123.84 -32.2,-124.9 -96.75,-124.73 -36.38,0.1 -72.79,-0 -109.17,-0.01 -34.56,-0 -66.39,-10.42 -81.23,27.94 -20.2,52.22 -42.94,107.7 -61.13,160.34 -25.07,72.56 -19.83,123.34 -19.84,198.52 -0,48.21 -8.74,83.23 24.74,84.44 28.35,1.03 85.33,2.08 111.72,-1.02z"/>
   <path class="fil0" d="M2889.24 1627.99l14.81 0.33c7.02,9.38 33.96,96.04 35.1,108.85l-96.7 0c0.36,-16.9 11.86,-44.78 16.72,-61.27 6.01,-20.4 6.38,-47.91 30.07,-47.91zm-66.31 342.33c15.13,-15.08 10.19,-30.48 10.16,-52.23 -0.03,-20.79 -0,-41.59 -0,-62.39l112.3 0c0,135.56 -12.9,115.12 102.94,115.41 66.37,0.17 49.39,3.58 49.9,-171.55 0.24,-82.2 -41.91,-170.85 -73.93,-253.6 -18.16,-46.93 -14.95,-46 -66.44,-45.86 -36.38,0.1 -72.79,-0 -109.17,-0.01 -34.56,-0 -66.39,-10.42 -81.23,27.94 -20.2,52.22 -42.94,107.7 -61.13,160.34 -25.07,72.56 -19.83,123.34 -19.84,198.52 -0,48.21 -8.74,83.23 24.74,84.44 28.35,1.03 85.33,2.08 111.71,-1.02z"/>
   <path class="fil0" d="M880.34 1484.5c-3.25,23.16 -7.36,26.54 -4.49,51.54 3.16,27.48 1.52,352.41 1.17,382.05 -1.02,85.91 -0.49,99.96 -59.07,161.85 -32.57,34.41 -153.17,42.38 -171.54,6.6l-3.14 -0.02c-17.27,-3.75 -45.23,-36.62 -53.15,-53.15 -39.32,-82.09 3.88,-146.04 -31.85,-170.94 -16.4,-11.43 -72.98,-11.25 -91.14,-4.34 -11.06,23.53 -2.19,95.22 -1.93,125.46 0.22,25.74 4.3,34.69 11.33,57.86 4.34,14.31 14.69,35.88 16.98,48.26 9.2,6.7 46.32,99.06 165.89,118.62 258.31,42.27 292.81,-138.66 314.51,-156.05 5.71,1.17 16.49,-45.01 17.98,-53.78 3.16,-18.6 -1.39,-189.27 0.72,-230.12 0.51,-9.9 3.19,-23.28 4.67,-32.98 2.87,-18.94 -0.57,-15.54 -1.53,-32.48 -0.7,-12.29 0.91,-24.82 -0.45,-37 -5.06,-45.11 1.54,-182.36 -4.89,-191.63 -15.34,-13.32 -40.64,-8.4 -60.17,-8.48 -10.82,-0.05 -22.83,-1.33 -33.07,1.26 -26.57,6.73 -16.96,17.03 -16.85,17.47z"/>
   <path class="fil1" d="M3843.85 1656.07l1.24 -17.01c22.97,-6.51 23.61,14.36 29.39,33 5.06,16.34 16.4,38.02 11.69,53.67l-17.46 -2.64 0.18 4.72c15.37,7.28 18.46,-5.07 24.74,9.42 -5.76,9.79 -17.91,5.56 -43.63,5.53 -16.01,-0.02 -33.14,0.55 -48.98,-0.54 -0.68,-7.53 20.08,-97.72 36.61,-104.38 3.48,7.62 1.06,4.36 0.02,15.1l6.2 3.12zm-115.5 -114.53c0.55,0.7 7.48,-1.25 -0.82,19.81 -3.15,7.99 -5.88,13.9 -8.98,22.41 -5.46,14.96 -11.18,30.18 -16.97,45.48 -10.91,28.82 -21.72,58.07 -33.62,87.49 -17.65,43.62 -10.3,177.56 -10.03,232.66 15.92,16.97 20.71,12.06 45.45,12.01 21.98,-0.04 43.98,0.25 65.95,-0.1 3.46,5.08 2.58,2.35 1.7,9.82 0.91,-1.01 6.4,-6.9 6.46,-6.95 3.59,-3.14 2.41,-1.58 7.18,-5.44 11.21,-9.08 1.5,-4.6 15.42,-11.67l-7.74 -2.64 0.35 -73.41c0.35,-14.02 -2.22,-13.82 7.43,-17.89 9.4,4.32 5.56,4.85 7.47,18.19l76.82 0c-10.82,-7.16 -40.13,-2.91 -56.62,-3.5 -15.26,-0.54 -10.62,2.62 -16.39,-5.86 5.61,-11.9 -1.01,-7.84 41.71,-7.74 14.41,0.03 33.73,-2.71 45.13,3.28 9.58,22.79 -8.46,85.96 11.81,100.01 10.98,7.62 89.2,3.64 108.48,4.22l2.22 6.29c4.22,-3.65 8.08,-5.97 12.86,-9.91 6.01,-4.95 4.45,-5.53 12.91,-10.82 -11.07,-2.01 -6.4,-28.02 -6.34,-38.54 1.16,-201.95 6.23,-146.3 -65.99,-339.62 -8.36,-22.36 -11.75,-47.9 -39.8,-50.02 -29.34,-2.23 -164.1,5.83 -177.41,-3.4 -16.54,9.69 -17.1,13.22 -28.64,25.85z"/>
   <path class="fil1" d="M4626.73 1539.46c11.89,0.3 2.75,-2.74 10.72,3.66l0.45 406.05c18.39,18.56 34.27,12.22 63.7,12.21 28.06,-0.01 56.17,-0.17 84.22,0.09l127.9 0.06c9.98,-0.15 33.89,-4.75 34.91,6.47 9.88,-12.19 13.09,-4.34 18.93,-18.72 -1.31,-22.17 4.22,-80.03 -4.11,-96.37 -20.04,-16.78 -149.84,-3.57 -185.78,-7.82 -2.82,-10.42 -2.27,-19.16 -2.34,-30.16 -0.12,-18.58 -3.47,-21.83 13.4,-21.66l2 15.65 5.18 0 -0.78 -16.23 100.83 -0.22 2.18 7.1c1.95,-2.05 22.43,-19.03 24.92,-20.77 -7.77,-4.57 -3.42,3.26 -5.76,-7.33 -0.03,-27.61 7.21,-69.08 -10.28,-89.04l-131.34 -1.91 1.96 -45.09 12 -0 1.46 17.52 129.07 0.33c16.2,-1.01 7.9,2.03 15.37,-4.84 -23.59,1.9 -50.85,0.68 -74.86,0.7 -23.37,0.02 -60.11,4.38 -66.89,-5.55 5.34,-10.2 -0.98,-6.78 16.63,-8.01l132.09 -0.06c4.95,8.15 5.08,-2.4 1.64,11.19 4.3,-2.67 2.35,-2.27 4.98,-4.98 15.42,-15.9 13.72,-6.16 17.75,-19.97 1.82,-123.32 14.99,-102.77 -106.19,-102.76l-184.39 0.35c-11.02,-0.06 -18.35,2.93 -18.62,-6.78 -9.81,10.78 -5.82,1.58 -15.55,12.29l-7.07 8.55c-1.44,1.34 -3.68,1.24 -8.32,6.04z"/>
   <path class="fil1" d="M5082.65 1531.29c-14.63,8.79 -44.46,36 -53.51,50.03l7.45 0.82c-8.94,41.5 -7.19,67.14 -7.09,108.25 0.23,100 72,96.55 124.12,106.58 22.73,4.37 87.98,2.88 78.48,30.71l-18.92 0.01c-30.45,11.59 -129.9,-5.54 -152.85,5.39 29.59,-0.56 148.67,-4.98 167.45,3.6 -7.36,15.81 -53.79,9.61 -86.34,9.61 -18.19,0 -82,3.88 -92.76,-3.07 -13.5,5.44 -7.85,-0.45 -16.31,9.47 -2.28,2.68 -1.92,3.5 -5.38,7.13 -1.25,1.31 -4.41,3.57 -7.2,5.9 12.54,-2.14 4.04,-2.2 9.61,2.02 -0.01,114.36 -32.73,94.01 183.79,93.74 69.56,-0.09 31.07,0.86 88.06,-7.19l2.83 7.47c9.32,-2.74 44.61,-32.97 49.29,-40.55 20.78,-50.64 19.22,-40.27 19.22,-99.82 0,-34.77 3.31,-73.31 -19.44,-99.4 -45.72,-52.44 -155.51,-29.5 -181.54,-55.88 -4.37,-13.03 -4.9,-21.86 7.32,-28.16 9.87,5.47 -0.6,2.5 9.31,15.25l5.01 -0.25c-9.08,-11.41 -3.36,-1.07 -6.66,-13 17.82,-9.67 114.79,-3.53 143.06,-3.35l1.6 6.99c7,-6.51 17.86,-14.99 25.43,-21.96 -17.51,-4.56 6.16,-84.42 -13.18,-98.84 -8.28,-6.17 -185.5,-5.26 -210.9,-2.65 -11.5,1.18 -44.5,13.36 -49.94,11.15z"/>
   <path class="fil1" d="M3289 1528.17c-16.12,9.69 -43.43,29.7 -50.4,46.59 1.94,3.53 -6.42,20.68 -8.66,29.88 -4.26,17.52 -4.19,23.89 -4.26,42.05 -0.11,31.18 0.16,62.45 -0.1,93.6 -0.42,49.53 -10.01,128.59 18.46,169.09 32.01,45.52 81.39,52.05 134.92,51.96 63.6,-0.11 127.25,0.2 190.82,-0.05 5.35,7.6 2.89,-0.82 1.51,9.84 7.48,-8.11 1.32,-3.16 9.75,-10.03 9.16,-7.47 5.13,1.51 11.14,-11.81 -3,-56.22 -1.04,-117.94 -0.85,-174.69 0.14,-42.12 4.14,-47.33 -40.79,-46.99 -19.19,0.14 -77.07,4.91 -78.25,-6.03 -9.51,10.44 -4.9,2.1 -14.19,10.52 -5.68,5.14 -6.23,8.05 -13.65,14.19l7.25 3.01c-0.04,14.67 -0.14,29.35 -0.04,44.02 0.29,42.29 2.66,30.45 -7.2,36.36 -11.36,-6.35 -7.82,2.15 -7.6,-36.36 0.08,-13.58 -0.76,-24.08 2.14,-37.43 -6.44,8.11 -4.01,21.13 -3.91,34.3 0.1,13.51 0.02,27.05 0.02,40.57l-33.79 0c15.33,7.42 45.63,-4.48 51.02,9.36 -4.12,9.67 -20.83,5.8 -32.8,5.7 -54.05,-0.44 -56.12,3.62 -56.06,-61.85 0.03,-27.03 -0,-54.07 0,-81.1 0.01,-24.32 -5.66,-47.98 15.94,-61.18l0.44 11.27 3.49 0 2.95 -15.65 148.63 -0.03c11.7,-0.35 12.31,-2.06 16.37,-12.39 -5.21,-114.54 21.67,-106.01 -66.28,-105.84 -27.02,0.05 -123.27,-1.55 -142.49,1.46 -14.25,2.22 -43.83,13.95 -53.54,7.68z"/>
   <path class="fil0" d="M2620.97 1968.01c4.9,-20.36 6.8,-225.84 0.8,-240.99 -4.2,-7.09 2.23,-3.12 -10.25,-8.46 -14.02,-6 -116.16,-5.46 -124.68,3.03 -12.79,27.64 -6.24,91.01 -6.24,124.78l-87.34 0c0,-38.43 3.01,-323.81 -1.38,-335.51 -6.56,-17.48 -57.02,-10.74 -73.48,-10.74 -94.05,0 -74.87,-23.37 -74.87,177.81l-0.04 252.71c-0.41,44.05 2.82,40.73 43.71,40.51 47.96,-0.25 309.19,3.77 333.78,-3.13z"/>
   <path class="fil0" d="M1435.61 1721.58c-16.98,-7.76 -88.45,-8.53 -112.03,-5.97 -12.86,1.4 -20.76,3.81 -25.22,15.33 -6.93,17.87 -2.83,132.06 1.71,154.26 17.42,85.13 113.83,96.2 185.64,98.25 10.76,0.31 22.95,-3.09 37.25,-2.96 37.28,0.33 92.94,-11.98 120.93,-38.16 35.05,-32.78 38.43,-78.19 38.18,-124.03 -0.13,-24.09 2.78,-281.03 -2.17,-300.45 -3.01,-11.84 -1.28,-9.49 -7.55,-14.28 -14.47,-8.27 -111.3,-4.59 -133.57,-2.88 -15.05,18.72 -9.58,16.53 -9.58,61.81l0 218.36c0,19.22 3.14,51.96 -8.95,62.8 -9.83,8.81 -50.77,8 -63.55,3.45 -29.57,-10.53 -5.07,-90.92 -21.09,-125.52z"/>
   <path class="fil2" d="M4948.64 1968.01c-1.02,-11.22 -24.94,-6.62 -34.91,-6.47l-127.9 -0.06c-28.06,-0.26 -56.16,-0.1 -84.22,-0.09 -29.43,0.01 -45.31,6.35 -63.7,-12.21l-0.45 -406.05c-7.96,-6.41 1.17,-3.36 -10.72,-3.66 -12.15,17.01 -6.24,190.41 -6.24,222.66 0,37.43 0,74.86 0,112.3 0,25.23 -8.69,88.62 12.36,103.06l243.42 -0.12c18.26,0 64.06,8.2 72.36,-9.36z"/>
   <path class="fil2" d="M3571.32 1971.13c1.37,-10.66 3.83,-2.24 -1.51,-9.84 -63.57,0.25 -127.22,-0.06 -190.82,0.05 -53.53,0.1 -102.91,-6.43 -134.92,-51.96 -28.47,-40.5 -18.88,-119.56 -18.46,-169.09 0.26,-31.15 -0.01,-62.42 0.1,-93.6 0.06,-18.15 -0,-24.52 4.26,-42.05 2.24,-9.2 10.6,-26.35 8.66,-29.88 -17.44,0.8 -28.47,51.29 -30.42,66.48 -3.35,26.01 -0.77,70.77 -0.77,99.05 0,156.8 -20.07,237.08 168.45,237.07 28.26,0 184.18,7.7 195.46,-6.24z"/>
   <path class="fil3" d="M3756.99 1515.7c13.31,9.24 148.07,1.18 177.41,3.4 28.05,2.13 31.44,27.66 39.8,50.02 72.22,193.32 67.15,137.67 65.99,339.62 -0.06,10.52 -4.73,36.52 6.34,38.54 15.27,-7.36 9.36,-54.78 9.36,-85.33 0,-31.19 -0.11,-62.4 0.01,-93.59 0.26,-67.62 -43.54,-151.96 -66.68,-217.18 -19.93,-56.18 -14.67,-44.84 -145.44,-44.84 -19.7,0 -77.34,-6.57 -86.78,9.36z"/>
   <path class="fil3" d="M4423.97 1518.38c158.03,12.66 129.41,-40.01 129.41,147.04 0,92.69 0.16,185.43 -0.31,279.19l8.15 2.26c15.32,-13.26 9.36,-70.82 9.36,-103.65l0 -286.99c0.16,-62.01 1.42,-49.9 -84.23,-49.91 -28.63,0 -55.27,-5.7 -62.39,12.05z"/>
   <path class="fil2" d="M4230.84 1971.13c-0.35,-6.81 0.71,-4.85 -3.07,-9.4 -30.21,-0.88 -81.68,4.95 -107.74,-4.81 -8.56,-28.4 -4.04,-361.32 -2.62,-417.32l-8.49 -0.9c-16.26,6.54 -9.36,41.4 -9.36,58.1l0 215.24c0,177.86 -15.4,165.43 49.91,165.33 23.92,-0.04 47.83,-0 71.75,-0l9.63 -6.24z"/>
   <path class="fil4" d="M474.66 2382.9l0.61 8.59c16.35,5.38 29.52,16.01 51.8,23.38 10.75,3.55 16.67,5.53 27.11,10.32l63.18 14.8c15.12,4.51 23.78,0.42 38.03,2.53 14.68,2.17 11.51,5.92 31.38,6.05 40.73,0.26 74.12,1.22 113.23,-5.66 30.59,-5.38 31.63,2.24 67.44,-10.54 36.99,-13.2 77.63,-23.59 113.61,-42.36 55.92,-29.18 130.09,-96.13 160.37,-151.57 8.64,-15.83 23.27,-32.79 29.61,-48.38 26.31,-64.76 43.15,-122.23 43.1,-193.95 -10.29,15 -16.34,101.35 -28.57,131.41 -7.81,19.2 -13.22,37.66 -20.9,56.17 -6.97,16.79 -19.7,30.75 -27.82,47.55 -6.11,12.65 -58.17,78.61 -68.7,86.42 -32.57,24.17 -51.92,42.3 -88.72,63.96 -20.92,12.32 -35.86,13.48 -55.84,22.59 -60.73,27.67 -125.79,36.74 -196.08,36.43l-110.58 -9.23c-14.41,-3.62 -17.47,-4.09 -32.73,-5.96 -35.9,-4.41 -99.73,-40.28 -109.53,-42.52z"/>
   <path class="fil2" d="M3771.04 1971.13c0.88,-7.47 1.76,-4.74 -1.7,-9.82 -21.97,0.34 -43.97,0.05 -65.95,0.1 -24.74,0.05 -29.53,4.96 -45.45,-12.01 -0.28,-55.1 -7.63,-189.04 10.03,-232.66 11.91,-29.42 22.72,-58.67 33.62,-87.49 5.79,-15.3 11.51,-30.52 16.97,-45.48 3.1,-8.51 5.84,-14.42 8.98,-22.41 8.29,-21.06 1.36,-19.11 0.82,-19.81 -12.87,6.72 -83.21,197.97 -86.96,233.44 -4.74,44.83 -0.01,114.08 -0.41,161.85 -0.33,40.38 0.1,40.89 40.55,40.55 27.01,-0.23 54.11,-0.03 81.13,-0.03 10.15,-2.6 4.23,1.97 8.37,-6.24z"/>
   <path class="fil2" d="M5213.18 1827.7l18.92 -0.01c9.5,-27.84 -55.75,-26.34 -78.48,-30.71 -52.12,-10.03 -123.89,-6.58 -124.12,-106.58 -0.1,-41.1 -1.85,-66.75 7.09,-108.25l-7.45 -0.82c-23.74,26.24 -28.98,154.53 2.53,193.87 38.05,47.51 146.66,35.65 181.52,52.5z"/>
   <path class="fil3" d="M5353.35 1921.22c28.04,-13.9 37.73,-56.41 37.74,-87.23 0,-38.63 3.07,-84.14 -13.47,-114.64 -35.37,-65.2 -171.82,-43.07 -189.4,-66.14 -9.91,-12.75 0.56,-9.77 -9.31,-15.25 -12.21,6.3 -11.69,15.12 -7.32,28.16 26.02,26.38 135.82,3.44 181.54,55.88 22.75,26.1 19.44,64.63 19.44,99.4 -0,59.55 1.56,49.18 -19.22,99.82z"/>
   <path class="fil2" d="M5304.07 1961.77l-2.83 -7.47c-56.98,8.05 -18.5,7.1 -88.06,7.19 -216.51,0.27 -183.79,20.62 -183.79,-93.74 -5.57,-4.22 2.93,-4.16 -9.61,-2.02 -15.04,8.6 -12.46,93.15 -2.45,107.84 23.82,9.29 116.84,3.79 149.06,3.79 40.53,0 110.1,6.56 137.68,-15.6z"/>
   <path class="fil3" d="M4657.68 1512.58c0.26,9.71 7.6,6.72 18.62,6.78l184.39 -0.35c121.18,-0.01 108.01,-20.56 106.19,102.76 24.94,-0.93 18.61,-33.35 18.58,-53.03 -0.1,-83.72 13.33,-62.39 -171.57,-62.39 -26.39,0 -141.35,-6.16 -156.21,6.24z"/>
   <path class="fil3" d="M3472.32 1721.58c1.18,10.94 59.06,6.18 78.25,6.03 44.93,-0.34 40.93,4.87 40.79,46.99 -0.19,56.75 -2.16,118.47 0.85,174.69 26.93,-2.86 17.6,-59.49 17.6,-81.1 0,-33.27 -0.04,-66.55 0,-99.82 0.06,-43.06 4.81,-56.33 -43.56,-56.26 -21.62,0.03 -82.02,-6.07 -93.93,9.47z"/>
   <path class="fil5" d="M646.42 2086.54c18.37,35.78 138.97,27.81 171.54,-6.6 58.58,-61.88 58.05,-75.93 59.07,-161.85 0.35,-29.64 1.99,-354.57 -1.17,-382.05 -2.87,-25 1.24,-28.38 4.49,-51.54 -19.14,11.55 -12.42,64.77 -12.46,99.82 -0.02,20.18 1.32,31.33 2.97,50.1l-2.98 105.88c-0.18,49.59 9.74,98.22 0.86,163.05 -5.04,36.8 2.66,60.62 -7.27,101.91 -7.93,32.99 -26.26,39.98 -44.78,64.4 -19.25,25.39 -48.42,26.46 -76.05,33.21 -32.45,7.93 -66.79,-11.1 -94.21,-16.33z"/>
   <path class="fil2" d="M4399.94 1765.09l-3.37 12.63c-2.65,31.27 -6.74,177.54 6.36,195.72 21.63,9.25 93,3.92 120.85,3.92 10.14,-2.6 4.22,1.97 8.38,-6.24 1.22,-7.96 2.14,-4.66 -1.59,-10.1 -27.22,1.18 -54.53,-0.01 -81.77,0.5 -36.87,0.68 -35.92,-9.92 -35.71,-43.38 0.24,-39.85 4.38,-126.42 -1.69,-160.54 -4.84,3.98 -5.38,4.35 -11.46,7.49z"/>
   <path class="fil5" d="M474.66 2382.9c-7.57,-5.93 -12.58,-7.1 -19.55,-11.68 -7.63,-5.01 -6.27,-5.75 -16.12,-11.36 -82.18,-46.76 -157.61,-157.62 -176.92,-236.88 -8.01,-32.86 -18.56,-64.1 -21.63,-98.33 -7.58,-84.59 -5.81,-147.16 -6.3,-231.34 -0.12,-20.87 -8.95,-98.38 16.25,-101.25 11.42,-10.64 15.61,-1.51 30.38,-8.91 -55.63,-11.35 -55.55,22.14 -55.49,66.49 0.19,146.83 0.23,157.71 12.16,299.78 1.5,17.89 19.4,82.85 26.86,97.92 26.85,54.27 4.4,35.86 65.72,121.44 56.4,78.71 114.73,98.09 132.88,116.7l11.75 -2.58z"/>
   <path class="fil3" d="M4967.57 1949.29c26.15,-2.66 17.87,-42.51 17.89,-62.39 0.09,-74.51 3.21,-56.15 -193.4,-56.15l-1.31 -21.84 -2 -15.65c-16.88,-0.16 -13.52,3.09 -13.4,21.66 0.07,11 -0.47,19.74 2.34,30.16 35.93,4.26 165.74,-8.96 185.78,7.82 8.33,16.34 2.8,74.21 4.11,96.37z"/>
   <path class="fil3" d="M3289 1528.17c9.71,6.27 39.29,-5.46 53.54,-7.68 19.22,-3 115.48,-1.4 142.49,-1.46 87.95,-0.17 61.08,-8.7 66.28,105.84 24.35,-2.37 17.97,-32.76 17.94,-53.03 -0.11,-86.83 12.11,-65.51 -155.97,-65.51 -51.59,0 -81.78,-2.14 -124.29,21.84z"/>
   <path class="fil3" d="M5082.65 1531.29c5.44,2.21 38.44,-9.97 49.94,-11.15 25.4,-2.61 202.61,-3.52 210.9,2.65 19.35,14.42 -4.33,94.28 13.18,98.84 16.83,-10.66 12.52,-33.43 12.48,-52.9 -0.14,-80.17 12.36,-62.39 -155.97,-62.39 -45.84,0 -100.24,-5.38 -130.53,24.96z"/>
   <path class="fil3" d="M4133.87 1518.54c147.15,6.69 103.09,-28.92 174.22,97.34 3.69,6.55 12.58,25.46 17.63,29.42 10.76,8.45 24.04,3.42 16.42,-14.18 -43.75,-61.5 -48.86,-124.24 -89.47,-125.04 -14.27,-0.28 -29.51,0.26 -43.93,0.26 -19.91,0 -68.78,-9.29 -74.86,12.2z"/>
   <path class="fil2" d="M3884.42 1871.3c-1.51,125.94 -10.55,106.06 77.89,106.06 17.23,0 50.5,6.93 58.46,-9.36l-2.22 -6.29c-19.27,-0.58 -97.49,3.39 -108.48,-4.22 -20.27,-14.05 -2.23,-77.22 -11.81,-100.01 -11.4,-5.99 -30.72,-3.24 -45.13,-3.28 -42.73,-0.1 -36.1,-4.15 -41.71,7.74 5.77,8.48 1.14,5.32 16.39,5.86 16.49,0.58 45.8,-3.67 56.62,3.5z"/>
   <path class="fil6" d="M250.39 1692.07c7.52,1.35 257.12,-10.55 288.01,0.6l-1.28 112.36c-23.26,5.61 -89.3,1.29 -121.7,1.29 -19.77,-0 -18.93,0.32 -32.09,9.13 -1.83,15.32 -3.49,178.86 4.39,201.47 2.89,8.3 -4.26,-5.73 2.11,4.75 3.9,6.42 -2.46,0.92 5.92,6.35 -4.69,-40.22 -7.67,-65.21 -7.68,-106.8 -0.01,-22.29 -5.37,-91.53 5.58,-106.24 32.67,-14.03 125.44,10.83 148.15,-7.85 2.02,-23.92 3.93,-102.53 -1.55,-122.9 -30.06,-6.42 -96.42,-1.85 -130.93,-2.48 -41.48,-0.75 -87.39,-1.7 -128.55,1.41 -14.78,7.4 -18.97,-1.73 -30.38,8.91z"/>
   <path class="fil4" d="M493.54 2089.68c-4.15,13.4 5.25,22.1 13.06,33.73 19.45,28.93 50.64,52.17 79.02,67.59 11.37,6.18 17.2,11.79 31.02,15.77 43.9,12.64 139.69,20.34 175.17,12.7 28.46,-6.13 75.35,-28.1 102.31,-47.42 33.45,-23.98 77.07,-77.67 79.83,-119.8 -21.7,17.4 -56.2,198.32 -314.51,156.05 -119.57,-19.57 -156.7,-111.92 -165.89,-118.62z"/>
   <path class="fil4" d="M493.54 2089.68c-2.3,-12.38 -12.64,-33.95 -16.98,-48.26 -7.03,-23.18 -11.12,-32.12 -11.33,-57.86 -0.26,-30.24 -9.13,-101.93 1.93,-125.46 18.16,-6.91 74.74,-7.08 91.14,4.34 35.73,24.9 -7.47,88.86 31.85,170.94 7.92,16.54 35.87,49.4 53.15,53.15 -16.59,-41.19 -62.43,-24.68 -62.39,-149.72 0.03,-95.85 -3.13,-94.78 -121.66,-84.22 -2.59,29.13 -6.25,9.58 -6.25,62.39l7.05 99.02c1.19,6.19 6.81,21.18 8.91,28.52l13.52 39.51c6.88,12.43 -2.77,8.3 11.06,7.66z"/>
   <path class="fil3" d="M3401.34 1830.75c-16.27,-3.61 -19.15,-11.17 -19.48,-27.83 -0.32,-16.35 0.24,-33.66 0.24,-50.15 0,-24.21 3.32,-79.76 -2.22,-99.82l-0.44 -11.27c-21.61,13.19 -15.94,36.86 -15.94,61.18 -0.01,27.04 0.02,54.07 -0,81.1 -0.06,65.47 2,61.41 56.06,61.85 11.98,0.1 28.69,3.98 32.8,-5.7 -5.39,-13.84 -35.7,-1.94 -51.02,-9.36z"/>
   <path class="fil3" d="M4923.07 1778.79c18.63,-8.3 12.48,-34.28 12.48,-54.1 0,-15.56 5.65,-47.34 -11.25,-54.26 -14.6,-5.99 -106.95,-0.5 -131.71,-2.42l-1.49 -15.06 -1.46 -17.52 -12 0 -1.96 45.09 131.34 1.91c17.5,19.95 10.25,61.43 10.28,89.04 2.34,10.59 -2,2.75 5.76,7.33z"/>
   <path class="fil5" d="M271.41 1483.72c13.32,-21.62 15.18,-39.16 24.92,-62.4 13,-31.02 49.4,-75.05 73.11,-101.66 7.55,-8.47 11.03,-16.23 19.95,-23.41 8.33,-6.71 16.14,-12.32 24.34,-19.54 54.58,-48.07 89.34,-52.79 142.58,-75.69 12.55,-5.4 20.8,-4.98 32.58,-10.34 32.56,-14.83 55.58,-2.32 76.2,-15 -32.27,0 -49.91,-2.94 -78.84,8.49 -15.9,6.28 -17.86,1.35 -33.34,10.33 -26.64,15.44 -84.55,22.58 -141.25,73.99 -17.59,15.95 -28.81,21.13 -43.37,40.86 -30.2,40.91 -65.2,69.65 -86.9,131.46 -3.65,10.4 -6.64,22.5 -12.5,31.17l2.51 11.76z"/>
   <path class="fil3" d="M4258.65 1947.33c16.88,-8.53 9.36,-48.6 9.36,-66.66 0,-25.99 -0.02,-51.99 0.01,-77.98l-0.43 -39.41c-0.53,-14.6 -2.04,-23.69 -16.13,-30.01l-1.05 211.41 8.24 2.66z"/>
   <path class="fil5" d="M395.75 2028.01c5.3,16.33 10.24,35.27 15.63,52.42 4.87,15.5 11.77,40.36 26.02,46.65 -2.75,-16.84 -15.26,-27.25 -24.17,-66.27 -3.2,-13.99 -5.6,-20.65 -9.87,-33.8 -4.7,-14.46 -2.62,-23.23 -5.65,-38.02 -4.25,-20.75 -8.51,-159.94 -0.85,-167.6 19.88,-9.16 112.38,-0.35 142.69,-3.92l2.27 -10.35c-22.72,18.68 -115.48,-6.18 -148.15,7.85 -10.96,14.71 -5.59,83.95 -5.58,106.24 0.01,41.59 2.98,66.58 7.68,106.8z"/>
   <path class="fil7" d="M5048.67 1843.23c10.77,6.95 74.57,3.07 92.76,3.07 32.55,-0.01 78.98,6.2 86.34,-9.61 -18.78,-8.58 -137.86,-4.16 -167.45,-3.6 -11.4,1.78 -10.95,-0.07 -11.66,10.14z"/>
   <path class="fil2" d="M5193.23 1652.95c24.32,0 48.65,0 72.97,0 18.23,0 54.86,7.29 65.03,-9.36l-1.6 -6.99c-28.27,-0.18 -125.24,-6.32 -143.06,3.35 3.3,11.93 -2.42,1.59 6.66,13z"/>
   <path class="fil7" d="M3868.9 1727.81l-53.21 0 21.96 -74.86c1.04,-10.74 3.46,-7.48 -0.02,-15.1 -16.53,6.65 -37.29,96.84 -36.61,104.38 15.84,1.09 32.97,0.52 48.98,0.54 25.72,0.03 37.88,4.26 43.63,-5.53 -6.29,-14.5 -9.38,-2.14 -24.74,-9.42z"/>
   <path class="fil5" d="M1036.31 1515.7c-7.17,-39.54 -51.96,-100.87 -82.41,-123.63 -44.15,-33 -85.06,-59.65 -142.17,-63.52 6.38,14.82 5.88,3.92 35.77,14.13 50.2,17.14 51.58,22.6 97.12,52.61 27.17,17.9 78.82,85.45 83.15,116.55l8.53 3.86z"/>
   <path class="fil8" d="M280.77 1683.16c41.17,-3.12 87.07,-2.17 128.55,-1.41 34.51,0.62 100.87,-3.94 130.93,2.48 5.48,20.37 3.58,98.98 1.55,122.9 8.47,-1.02 4.69,-8.17 4.87,-19.94 0.19,-12.27 1.53,-12.68 2.63,-22.33 1.7,-14.86 0.38,-37.02 0.49,-52.74 0.3,-41.44 -11.92,-37.34 -68.73,-37.33 -18.67,0 -174.78,-2.27 -190.99,2.43 -9.78,2.84 -6.75,-2.21 -9.31,5.94z"/>
   <path class="fil2" d="M3383.37 1652.95c27.65,0 55.3,0 82.95,0 20.51,0 66.34,10.03 68.63,-15.68l-148.63 0.03 -2.95 15.65z"/>
   <path class="fil9" d="M4267.58 1763.27l0.43 39.41c14.86,16.68 12.87,22.79 40.66,24.93 15.53,1.19 44.22,0.8 47.62,-15.57l-1.09 -4.88c-52.5,-1.15 -60.63,5.98 -81.81,-47.77l-5.8 3.89z"/>
   <path class="fil2" d="M4935.55 1648.44c12.39,2.56 6.19,1.09 8.6,-1.73 3.44,-13.59 3.31,-3.04 -1.64,-11.19l-132.09 0.06c-17.61,1.22 -11.29,-2.19 -16.63,8.01 6.78,9.94 43.52,5.57 66.89,5.55 24.01,-0.02 51.27,1.2 74.86,-0.7z"/>
   <path class="fil2" d="M3843.85 1656.07c13.39,20.86 13.58,49.76 24.87,67.02l17.46 2.64c4.71,-15.65 -6.63,-37.32 -11.69,-53.67 -5.78,-18.65 -6.42,-39.51 -29.39,-33l-1.24 17.01z"/>
   <path class="fil5" d="M440.54 1478.35c11.29,2.1 4.86,3.14 12.17,-6.63 18.64,-24.91 29.75,-50.01 70.18,-76.42 53.79,-35.14 29.54,-29.48 92.78,-50.54 11.51,-3.83 9.34,-2.15 15.14,-9.96 -48,4.34 -77.96,27.68 -113.1,55.21 -8.95,7.01 -15.26,7.93 -23.86,16.77 -17.65,18.13 -45.14,47.19 -53.3,71.58z"/>
   <path class="fil2" d="M4795.93 1808.92c18.47,0 36.93,-0.02 55.4,0 18.8,0.02 37.03,5.4 46.83,-9.36l-2.18 -7.1 -100.83 0.22 0.78 16.23z"/>
   <path class="fil3" d="M3800.1 1947.06c15.85,-14.31 12.1,-55.89 7.5,-75.76 -1.9,-13.34 1.93,-13.87 -7.47,-18.19 -9.64,4.08 -7.07,3.87 -7.43,17.89l-0.35 73.41 7.74 2.64z"/>
   <path class="fil5" d="M1027.31 1263.01c1.67,-11.36 -3.81,-10.89 -14.06,-17.46l-60.46 -36.24c-4.48,-2.11 -16.32,-4.74 -23.91,-7.28 -27.62,-9.25 -48.63,-20.1 -79.7,-20.1 8.78,12.72 34.1,10.5 49.5,16.87 15.83,6.55 33.11,10.09 48.58,16.33l80.05 47.89z"/>
   <path class="fil5" d="M555.94 2251.69c-8.62,-20.94 -28.17,-17.99 -65.87,-55.6 -6.69,-6.67 -21.46,-25.54 -26.45,-32.81 -5.18,-7.55 -9.82,-10.81 -13.74,-17.45 -7.33,-12.39 -2.02,-13.82 -15.57,-18.73 4.66,22.43 35.28,56.67 50.91,73.73 6.51,7.1 23.73,22.09 31.51,27.85 5.81,4.31 34.75,21.71 39.22,23.01z"/>
   <path class="fil2" d="M3439.03 1755.89c-2.9,13.35 -2.06,23.85 -2.14,37.43 -0.23,38.52 -3.77,30.02 7.6,36.36 9.86,-5.92 7.49,5.93 7.2,-36.36 -0.1,-14.67 0.01,-29.36 0.04,-44.02l-7.25 -3.01c-8.85,6.41 -4.32,0.92 -5.46,9.6z"/>
   <path class="fil10" d="M331.34 1543.79c-20.17,0.92 -55.58,8.98 -72.52,3.77 -2.32,-17.1 8.89,-45.45 12.58,-63.83 -9.24,0.42 -11.74,14.45 -14.62,32.28 -5.79,35.89 -26.35,47.36 54.02,35.35 23.97,-3.58 15,0.81 20.54,-7.57z"/>
   <path class="fil5" d="M1095.61 1322.06c3.91,-12.14 -0.13,-11.13 -10.14,-20.83 -7.06,-6.83 -8.58,-8.47 -16.7,-14.5 -14.91,-11.06 -20.48,-27.95 -41.45,-23.72 6.74,6.16 11.6,7.6 18.65,12.45 6.52,4.48 9.92,9.7 16.09,15 12.32,10.58 22.12,21.73 33.56,31.61z"/>
   <path class="fil5" d="M384.4 1540.65c23.57,0 31.66,5.35 44.36,-14.88 4.85,-7.73 6.27,-10.97 8.7,-19.38 4.1,-14.18 7.03,-14 3.08,-28.05 -17.46,23.19 -5.2,50.28 -40.98,56.92l-15.15 5.38z"/>
   <path class="fil7" d="M4380.3 1792.55c9.57,-4.8 9.48,-8.37 16.28,-14.82l3.37 -12.63c6.35,-14.67 12.47,-16.58 11.92,-31.18 -10.74,4.46 -13.66,17.9 -20.56,29.78 -3.84,6.61 -16.82,25.02 -11,28.85z"/>
   <path class="fil5" d="M1126.79 1356.46c-0.88,-11.55 -5.38,-14.72 -11.89,-22.29 -8.72,-10.13 -8.04,-12.13 -19.29,-12.12 7.86,12.77 18.96,27.24 31.18,34.4z"/>
  </g>
 </g>
</svg>
